<svg width="27" height="27" viewBox="0 0 27 27" fill="none" xmlns="http://www.w3.org/2000/svg">
<g clip-path="url(#clip0_229_10038)">
<circle cx="13.5" cy="13.5" r="13.5" fill="#C7A2C3"/>
<path fill-rule="evenodd" clip-rule="evenodd" d="M13.9998 10.7501C13.9998 12.2688 12.7685 13.5001 11.2498 13.5001C9.73097 13.5001 8.49976 12.2688 8.49976 10.7501C8.49976 9.23128 9.73097 8.00006 11.2498 8.00006C12.7685 8.00006 13.9998 9.23128 13.9998 10.7501ZM9.75 14.5001H12.75C14.4 14.5001 15.75 15.8501 15.75 17.5001V19.0001H6.75V17.5001C6.75 15.8501 8.1 14.5001 9.75 14.5001Z" fill="white"/>
<path d="M21.5178 13.639V14.834H16.7666V13.639H21.5178ZM19.7944 11.7585V16.8049H18.4948V11.7585H19.7944Z" fill="white"/>
</g>
<defs>
<clipPath id="clip0_229_10038">
<rect width="27" height="27" fill="white"/>
</clipPath>
</defs>
</svg>
