<svg width="24" height="24" viewBox="0 0 24 24" fill="none" xmlns="http://www.w3.org/2000/svg">
<mask id="mask0_235_4171" style="mask-type:alpha" maskUnits="userSpaceOnUse" x="0" y="0" width="24" height="24">
<rect width="24" height="24" fill="#D9D9D9"/>
</mask>
<g mask="url(#mask0_235_4171)">
<path d="M2 22V3.49997C2 3.11664 2.15 2.7708 2.45 2.46247C2.75 2.15414 3.1 1.99997 3.5 1.99997H20.5C20.8833 1.99997 21.2292 2.15414 21.5375 2.46247C21.8458 2.7708 22 3.11664 22 3.49997V16.5C22 16.8833 21.8458 17.2291 21.5375 17.5375C21.2292 17.8458 20.8833 18 20.5 18H6L2 22ZM3.5 18.375L5.375 16.5H20.5V3.49997H3.5V18.375Z" fill="#1C1B1F"/>
</g>
</svg>
