<svg width="25" height="25" viewBox="0 0 25 25" fill="none" xmlns="http://www.w3.org/2000/svg">
<mask id="mask0_498_4128" style="mask-type:alpha" maskUnits="userSpaceOnUse" x="0" y="0" width="25" height="25">
<rect x="0.486328" y="0.638023" width="24" height="24" fill="#D9D9D9"/>
</mask>
<g mask="url(#mask0_498_4128)">
<path d="M6.48633 17.638H18.4863V14.638H6.48633V17.638ZM4.48633 20.638C3.93633 20.638 3.46549 20.4422 3.07383 20.0505C2.68216 19.6589 2.48633 19.188 2.48633 18.638V6.63802C2.48633 6.08802 2.68216 5.61719 3.07383 5.22552C3.46549 4.83386 3.93633 4.63802 4.48633 4.63802H20.4863C21.0363 4.63802 21.5072 4.83386 21.8988 5.22552C22.2905 5.61719 22.4863 6.08802 22.4863 6.63802V18.638C22.4863 19.188 22.2905 19.6589 21.8988 20.0505C21.5072 20.4422 21.0363 20.638 20.4863 20.638H4.48633ZM4.48633 18.638H20.4863V6.63802H4.48633V18.638Z" fill="#9E9E9E"/>
</g>
</svg>
