<svg width="24" height="24" viewBox="0 0 24 24" fill="none" xmlns="http://www.w3.org/2000/svg">
<mask id="mask0_235_4167" style="mask-type:alpha" maskUnits="userSpaceOnUse" x="0" y="0" width="24" height="24">
<rect width="24" height="24" fill="#D9D9D9"/>
</mask>
<g mask="url(#mask0_235_4167)">
<path d="M12 20.975L10.975 20.05C9.20833 18.4333 7.75 17.0375 6.6 15.8625C5.45 14.6875 4.53333 13.6375 3.85 12.7125C3.16667 11.7875 2.6875 10.95 2.4125 10.2C2.1375 9.44999 2 8.69166 2 7.92499C2 6.42499 2.50417 5.17083 3.5125 4.16249C4.52083 3.15416 5.76667 2.64999 7.25 2.64999C8.2 2.64999 9.07917 2.87499 9.8875 3.32499C10.6958 3.77499 11.4 4.42499 12 5.27499C12.7 4.37499 13.4417 3.71249 14.225 3.28749C15.0083 2.86249 15.85 2.64999 16.75 2.64999C18.2333 2.64999 19.4792 3.15416 20.4875 4.16249C21.4958 5.17083 22 6.42499 22 7.92499C22 8.69166 21.8625 9.44999 21.5875 10.2C21.3125 10.95 20.8333 11.7875 20.15 12.7125C19.4667 13.6375 18.55 14.6875 17.4 15.8625C16.25 17.0375 14.7917 18.4333 13.025 20.05L12 20.975Z" fill="#E53935"/>
</g>
</svg>
