<svg width="25" height="25" viewBox="0 0 25 25" fill="none" xmlns="http://www.w3.org/2000/svg">
<mask id="mask0_498_4119" style="mask-type:alpha" maskUnits="userSpaceOnUse" x="0" y="0" width="25" height="25">
<rect x="0.486328" y="0.638023" width="24" height="24" fill="#D9D9D9"/>
</mask>
<g mask="url(#mask0_498_4119)">
<path d="M5.48633 22.638C4.93633 22.638 4.46549 22.4422 4.07383 22.0505C3.68216 21.6589 3.48633 21.188 3.48633 20.638V6.63802C3.48633 6.08802 3.68216 5.61719 4.07383 5.22552C4.46549 4.83386 4.93633 4.63802 5.48633 4.63802H6.48633V2.63802H8.48633V4.63802H16.4863V2.63802H18.4863V4.63802H19.4863C20.0363 4.63802 20.5072 4.83386 20.8988 5.22552C21.2905 5.61719 21.4863 6.08802 21.4863 6.63802V20.638C21.4863 21.188 21.2905 21.6589 20.8988 22.0505C20.5072 22.4422 20.0363 22.638 19.4863 22.638H5.48633ZM5.48633 20.638H19.4863V10.638H5.48633V20.638ZM5.48633 8.63802H19.4863V6.63802H5.48633V8.63802Z" fill="#9E9E9E"/>
</g>
</svg>
