<svg width="25" height="25" viewBox="0 0 25 25" fill="none" xmlns="http://www.w3.org/2000/svg">
<mask id="mask0_481_5636" style="mask-type:alpha" maskUnits="userSpaceOnUse" x="0" y="0" width="25" height="25">
<rect x="0.197754" y="0.508118" width="24" height="24" fill="#D9D9D9"/>
</mask>
<g mask="url(#mask0_481_5636)">
<path d="M5.19775 21.5081C4.64775 21.5081 4.17692 21.3123 3.78525 20.9206C3.39359 20.529 3.19775 20.0581 3.19775 19.5081V5.50812C3.19775 4.95812 3.39359 4.48728 3.78525 4.09562C4.17692 3.70395 4.64775 3.50812 5.19775 3.50812H12.1978V5.50812H5.19775V19.5081H12.1978V21.5081H5.19775ZM16.1978 17.5081L14.8228 16.0581L17.3728 13.5081H9.19775V11.5081H17.3728L14.8228 8.95812L16.1978 7.50812L21.1978 12.5081L16.1978 17.5081Z" fill="#1C1B1F"/>
</g>
</svg>
