<svg width="20" height="20" viewBox="0 0 20 20" fill="none" xmlns="http://www.w3.org/2000/svg">
<mask id="mask0_233_4112" style="mask-type:alpha" maskUnits="userSpaceOnUse" x="0" y="0" width="20" height="20">
<rect width="20" height="20" fill="#D9D9D9"/>
</mask>
<g mask="url(#mask0_233_4112)">
<path d="M4.16663 18.3333C3.47218 18.3333 2.8819 18.0903 2.39579 17.6042C1.90968 17.1181 1.66663 16.5278 1.66663 15.8333V4.16666C1.66663 3.47222 1.90968 2.88194 2.39579 2.39583C2.8819 1.90972 3.47218 1.66666 4.16663 1.66666H15.8333C16.5277 1.66666 17.118 1.90972 17.6041 2.39583C18.0902 2.88194 18.3333 3.47222 18.3333 4.16666V15.8333C18.3333 16.5278 18.0902 17.1181 17.6041 17.6042C17.118 18.0903 16.5277 18.3333 15.8333 18.3333H4.16663ZM4.16663 16.6667H15.8333C16.0694 16.6667 16.2673 16.5868 16.427 16.4271C16.5868 16.2674 16.6666 16.0694 16.6666 15.8333V4.16666C16.6666 3.93055 16.5868 3.73264 16.427 3.57291C16.2673 3.41319 16.0694 3.33333 15.8333 3.33333H4.16663C3.93051 3.33333 3.7326 3.41319 3.57288 3.57291C3.41315 3.73264 3.33329 3.93055 3.33329 4.16666V15.8333C3.33329 16.0694 3.41315 16.2674 3.57288 16.4271C3.7326 16.5868 3.93051 16.6667 4.16663 16.6667ZM4.99996 15L8.33329 11.6667L9.83329 13.1458L11.6666 10.8333L15 15H4.99996ZM6.66663 8.33333C6.20829 8.33333 5.81593 8.17014 5.48954 7.84375C5.16315 7.51736 4.99996 7.125 4.99996 6.66666C4.99996 6.20833 5.16315 5.81597 5.48954 5.48958C5.81593 5.16319 6.20829 5 6.66663 5C7.12496 5 7.51732 5.16319 7.84371 5.48958C8.1701 5.81597 8.33329 6.20833 8.33329 6.66666C8.33329 7.125 8.1701 7.51736 7.84371 7.84375C7.51732 8.17014 7.12496 8.33333 6.66663 8.33333Z" fill="#51C0B7"/>
</g>
</svg>
