<svg width="24" height="24" viewBox="0 0 24 24" fill="none" xmlns="http://www.w3.org/2000/svg">
<mask id="mask0_507_4127" style="mask-type:alpha" maskUnits="userSpaceOnUse" x="0" y="0" width="24" height="24">
<rect width="24" height="24" fill="#D9D9D9"/>
</mask>
<g mask="url(#mask0_507_4127)">
<path d="M6 20C5.45 20 4.97917 19.8042 4.5875 19.4125C4.19583 19.0208 4 18.55 4 18C4 17.45 4.19583 16.9792 4.5875 16.5875C4.97917 16.1958 5.45 16 6 16C6.55 16 7.02083 16.1958 7.4125 16.5875C7.80417 16.9792 8 17.45 8 18C8 18.55 7.80417 19.0208 7.4125 19.4125C7.02083 19.8042 6.55 20 6 20ZM6 14C5.45 14 4.97917 13.8042 4.5875 13.4125C4.19583 13.0208 4 12.55 4 12C4 11.45 4.19583 10.9792 4.5875 10.5875C4.97917 10.1958 5.45 10 6 10C6.55 10 7.02083 10.1958 7.4125 10.5875C7.80417 10.9792 8 11.45 8 12C8 12.55 7.80417 13.0208 7.4125 13.4125C7.02083 13.8042 6.55 14 6 14ZM6 8C5.45 8 4.97917 7.80417 4.5875 7.4125C4.19583 7.02083 4 6.55 4 6C4 5.45 4.19583 4.97917 4.5875 4.5875C4.97917 4.19583 5.45 4 6 4C6.55 4 7.02083 4.19583 7.4125 4.5875C7.80417 4.97917 8 5.45 8 6C8 6.55 7.80417 7.02083 7.4125 7.4125C7.02083 7.80417 6.55 8 6 8ZM12 14C11.45 14 10.9792 13.8042 10.5875 13.4125C10.1958 13.0208 10 12.55 10 12C10 11.45 10.1958 10.9792 10.5875 10.5875C10.9792 10.1958 11.45 10 12 10C12.55 10 13.0208 10.1958 13.4125 10.5875C13.8042 10.9792 14 11.45 14 12L12 14ZM12 8C11.45 8 10.9792 7.80417 10.5875 7.4125C10.1958 7.02083 10 6.55 10 6C10 5.45 10.1958 4.97917 10.5875 4.5875C10.9792 4.19583 11.45 4 12 4C12.55 4 13.0208 4.19583 13.4125 4.5875C13.8042 4.97917 14 5.45 14 6C14 6.55 13.8042 7.02083 13.4125 7.4125C13.0208 7.80417 12.55 8 12 8ZM11 20V17.875L16.3 12.575L18.425 14.7L13.125 20H11ZM18 8C17.45 8 16.9792 7.80417 16.5875 7.4125C16.1958 7.02083 16 6.55 16 6C16 5.45 16.1958 4.97917 16.5875 4.5875C16.9792 4.19583 17.45 4 18 4C18.55 4 19.0208 4.19583 19.4125 4.5875C19.8042 4.97917 20 5.45 20 6C20 6.55 19.8042 7.02083 19.4125 7.4125C19.0208 7.80417 18.55 8 18 8ZM19.125 14L17 11.875L17.725 11.15C17.925 10.95 18.1625 10.85 18.4375 10.85C18.7125 10.85 18.9417 10.95 19.125 11.15L19.85 11.875C20.05 12.0583 20.15 12.2875 20.15 12.5625C20.15 12.8375 20.05 13.075 19.85 13.275L19.125 14Z" fill="#9E9E9E"/>
</g>
</svg>
