<svg width="25" height="25" viewBox="0 0 25 25" fill="none" xmlns="http://www.w3.org/2000/svg">
<mask id="mask0_498_4137" style="mask-type:alpha" maskUnits="userSpaceOnUse" x="0" y="0" width="25" height="25">
<rect x="0.486328" y="0.638023" width="24" height="24" fill="#D9D9D9"/>
</mask>
<g mask="url(#mask0_498_4137)">
<path d="M12.4863 22.638C11.2697 22.488 10.0613 22.1589 8.86133 21.6505C7.66133 21.1422 6.59049 20.413 5.64883 19.463C4.70716 18.513 3.94466 17.313 3.36133 15.863C2.77799 14.413 2.48633 12.6714 2.48633 10.638V9.63802H3.48633C4.33633 9.63802 5.21133 9.74636 6.11133 9.96302C7.01133 10.1797 7.85299 10.5047 8.63633 10.938C8.83633 9.50469 9.2905 8.03386 9.99883 6.52552C10.7072 5.01719 11.5363 3.72136 12.4863 2.63802C13.4363 3.72136 14.2655 5.01719 14.9738 6.52552C15.6822 8.03386 16.1363 9.50469 16.3363 10.938C17.1197 10.5047 17.9613 10.1797 18.8613 9.96302C19.7613 9.74636 20.6363 9.63802 21.4863 9.63802H22.4863V10.638C22.4863 12.6714 22.1947 14.413 21.6113 15.863C21.028 17.313 20.2655 18.513 19.3238 19.463C18.3822 20.413 17.3155 21.1422 16.1238 21.6505C14.9322 22.1589 13.7197 22.488 12.4863 22.638ZM12.4363 20.588C12.253 17.8214 11.4322 15.7297 9.97383 14.313C8.51549 12.8964 6.70299 12.0214 4.53633 11.688C4.71966 14.538 5.56549 16.663 7.07383 18.063C8.58216 19.463 10.3697 20.3047 12.4363 20.588ZM12.4863 14.238C12.7363 13.8714 13.0405 13.4922 13.3988 13.1005C13.7572 12.7089 14.103 12.3714 14.4363 12.088C14.403 11.138 14.2155 10.1464 13.8738 9.11302C13.5322 8.07969 13.0697 7.07136 12.4863 6.08802C11.903 7.07136 11.4405 8.07969 11.0988 9.11302C10.7572 10.1464 10.5697 11.138 10.5363 12.088C10.8697 12.3714 11.2197 12.7089 11.5863 13.1005C11.953 13.4922 12.253 13.8714 12.4863 14.238ZM14.4363 20.138C15.053 19.938 15.6947 19.6464 16.3613 19.263C17.028 18.8797 17.6488 18.3589 18.2238 17.7005C18.7988 17.0422 19.2905 16.2214 19.6988 15.238C20.1072 14.2547 20.353 13.0714 20.4363 11.688C18.8697 11.9214 17.4947 12.4422 16.3113 13.2505C15.128 14.0589 14.2197 15.088 13.5863 16.338C13.7863 16.8714 13.9572 17.4547 14.0988 18.088C14.2405 18.7214 14.353 19.4047 14.4363 20.138Z" fill="#9E9E9E"/>
</g>
</svg>
