<svg width="24" height="24" viewBox="0 0 24 24" fill="none" xmlns="http://www.w3.org/2000/svg">
<mask id="mask0_235_4175" style="mask-type:alpha" maskUnits="userSpaceOnUse" x="0" y="0" width="24" height="24">
<rect width="24" height="24" fill="#D9D9D9"/>
</mask>
<g mask="url(#mask0_235_4175)">
<path d="M18.175 22C17.3833 22 16.7104 21.7221 16.1562 21.1663C15.6021 20.6105 15.325 19.9357 15.325 19.1417C15.325 19.0305 15.3375 18.8946 15.3625 18.7339C15.3875 18.5732 15.425 18.4285 15.475 18.3L7.9 13.9C7.65 14.1833 7.34167 14.4125 6.975 14.5875C6.60833 14.7625 6.23333 14.85 5.85 14.85C5.05833 14.85 4.38542 14.5729 3.83125 14.0187C3.27708 13.4646 3 12.7916 3 12C3 11.2083 3.27708 10.5354 3.83125 9.98122C4.38542 9.42705 5.05833 9.14997 5.85 9.14997C6.23333 9.14997 6.6 9.22497 6.95 9.37497C7.3 9.52497 7.61667 9.74164 7.9 10.025L15.475 5.67497C15.425 5.55712 15.3875 5.42453 15.3625 5.27719C15.3375 5.12988 15.325 4.98747 15.325 4.84997C15.325 4.0583 15.6021 3.38539 16.1562 2.83122C16.7104 2.27705 17.3833 1.99997 18.175 1.99997C18.9667 1.99997 19.6396 2.27705 20.1938 2.83122C20.7479 3.38539 21.025 4.0583 21.025 4.84997C21.025 5.64164 20.7479 6.31455 20.1938 6.86872C19.6396 7.42289 18.9667 7.69997 18.175 7.69997C17.7858 7.69997 17.4135 7.63747 17.0581 7.51247C16.7027 7.38747 16.4 7.1833 16.15 6.89997L8.575 11.1C8.60833 11.2333 8.6375 11.3875 8.6625 11.5625C8.6875 11.7375 8.7 11.8853 8.7 12.006C8.7 12.1267 8.6875 12.2517 8.6625 12.381C8.6375 12.5103 8.60833 12.6416 8.575 12.775L16.15 17.075C16.4 16.8416 16.6917 16.6541 17.025 16.5125C17.3583 16.3708 17.7417 16.3 18.175 16.3C18.9667 16.3 19.6396 16.5771 20.1938 17.1312C20.7479 17.6854 21.025 18.3583 21.025 19.15C21.025 19.9416 20.7479 20.6146 20.1938 21.1687C19.6396 21.7229 18.9667 22 18.175 22ZM18.1759 6.19997C18.5586 6.19997 18.8792 6.07051 19.1375 5.81159C19.3958 5.55268 19.525 5.23184 19.525 4.84909C19.525 4.46634 19.3955 4.1458 19.1366 3.88747C18.8777 3.62914 18.5569 3.49997 18.1741 3.49997C17.7914 3.49997 17.4708 3.62943 17.2125 3.88834C16.9542 4.14726 16.825 4.46809 16.825 4.85084C16.825 5.23359 16.9545 5.55414 17.2134 5.81247C17.4723 6.0708 17.7931 6.19997 18.1759 6.19997ZM5.85088 13.35C6.23363 13.35 6.55417 13.2205 6.8125 12.9616C7.07083 12.7027 7.2 12.3818 7.2 11.9991C7.2 11.6163 7.07054 11.2958 6.81163 11.0375C6.55271 10.7791 6.23187 10.65 5.84912 10.65C5.46637 10.65 5.14583 10.7794 4.8875 11.0383C4.62917 11.2973 4.5 11.6181 4.5 12.0008C4.5 12.3836 4.62946 12.7041 4.88838 12.9625C5.14729 13.2208 5.46813 13.35 5.85088 13.35ZM18.1759 20.5C18.5586 20.5 18.8792 20.3705 19.1375 20.1116C19.3958 19.8527 19.525 19.5318 19.525 19.1491C19.525 18.7663 19.3955 18.4458 19.1366 18.1875C18.8777 17.9291 18.5569 17.8 18.1741 17.8C17.7914 17.8 17.4708 17.9294 17.2125 18.1883C16.9542 18.4473 16.825 18.7681 16.825 19.1508C16.825 19.5336 16.9545 19.8541 17.2134 20.1125C17.4723 20.3708 17.7931 20.5 18.1759 20.5Z" fill="#51C0B7"/>
</g>
</svg>
